#!OML:ASF X:\für Bonn\!DataBase\2005_08_12_Daniel\c3d\Daniel.ASF
:FULLY-SPECIFIED
:DEGREES
62
root 2.7661 17.6622 17.383 -4.77206 11.1017 0.233667
lowerback 4.65604 -0.727311 0.249073
upperback 1.81784 -0.987961 -3.2505
thorax -0.803362 -0.482795 -3.43275
lowerneck 0.0227797 -1.17961 -2.72809
upperneck 9.5956 -1.35477 -1.57812
head 3.06658 -0.814612 -0.075512
rclavicle -1.61513e-015 7.15625e-015
rhumerus -14.4312 4.76241 -77.4398
rradius 103.195
rwrist -5.30427
rhand -30.8755 26.5261
rfingers 7.12502
rthumb -4.16288 -3.41293
lclavicle -1.61513e-015 7.15625e-015
lhumerus -34.7215 33.8898 70.5358
lradius 17.9914
lwrist -38.9408
lhand -3.47856 -4.21827
lfingers 7.12502
lthumb 22.2546 24.5204
rfemur 9.49963 18.0375 21.3132
rtibia 13.2891
rfoot -25.4581 -26.2855
rtoes -11.2658
lfemur 0.890223 -15.7615 -19.9498
ltibia 26.1211
lfoot -21.794 9.2938
ltoes -12.2333
63
root 2.76397 17.6624 17.3841 -4.75761 11.2109 0.231619
lowerback 4.59974 -0.640263 0.290977
upperback 1.79696 -0.870396 -3.32617
thorax -0.787811 -0.423618 -3.54173
lowerneck 0.15641 -1.31173 -2.77557
upperneck 9.64178 -1.54387 -1.45738
head 3.06034 -0.905986 -0.0328373
rclavicle -3.63776e-014 1.03368e-014
rhumerus -12.505 4.72001 -76.4289
rradius 103.083
rwrist -5.20285
rhand -30.8653 26.0728
rfingers 7.12502
rthumb -4.15306 -3.86648
lclavicle -3.63776e-014 1.03368e-014
lhumerus -34.7318 34.1752 70.3088
lradius 17.911
lwrist -39.2012
lhand -3.40007 -4.17443
lfingers 7.12502
lthumb 22.33 24.5552
rfemur 9.49808 17.9481 21.3136
rtibia 13.287
rfoot -25.4817 -26.2993
rtoes -11.2562
lfemur 0.845058 -15.8071 -19.9356
ltibia 26.1333
lfoot -21.7516 9.26149
ltoes -12.3395
64
root 2.7616 17.6616 17.3845 -4.7787 11.2798 0.24512
lowerback 4.59778 -0.528053 0.329436
upperback 1.78202 -0.720252 -3.42641
thorax -0.794072 -0.348162 -3.67559
lowerneck 0.269034 -1.45946 -2.75023
upperneck 9.68188 -1.7566 -1.32264
head 3.05574 -1.00617 0.00124549
rclavicle 1.10574e-015 3.97569e-014
rhumerus -10.6552 4.56247 -75.4843
rradius 102.909
rwrist -5.08668
rhand -30.7936 25.6444
rfingers 7.12502
rthumb -4.08387 -4.29616
lclavicle 1.10574e-015 3.97569e-014
lhumerus -34.6573 34.3336 70.1219
lradius 17.799
lwrist -39.3002
lhand -3.34666 -4.16154
lfingers 7.12502
lthumb 22.3812 24.5619
rfemur 9.53509 17.8994 21.3141
rtibia 13.2904
rfoot -25.5067 -26.3133
rtoes -11.2506
lfemur 0.85288 -15.7973 -19.936
ltibia 26.1425
lfoot -21.7429 9.18409
ltoes -12.3471
65
root 2.75926 17.6613 17.3864 -4.77879 11.3889 0.244209
lowerback 4.56847 -0.443179 0.389951
upperback 1.75699 -0.605538 -3.52931
thorax -0.797365 -0.290476 -3.82302
lowerneck 0.369657 -1.58824 -2.76829
upperneck 9.74276 -1.94436 -1.15951
head 3.06158 -1.09492 0.0524481
rclavicle -1.61388e-014 1.74931e-014
rhumerus -8.86041 4.41528 -74.5925
rradius 102.673
rwrist -5.04494
rhand -30.6695 25.2397
rfingers 7.12502
rthumb -3.964 -4.70318
lclavicle -1.61388e-014 1.74931e-014
lhumerus -34.5967 34.5468 69.9001
lradius 17.6796
lwrist -39.4122
lhand -3.28864 -4.09727
lfingers 7.12502
lthumb 22.4369 24.6195
rfemur 9.55437 17.8164 21.3233
rtibia 13.2934
rfoot -25.5255 -26.3337
rtoes -11.2781
lfemur 0.825138 -15.8119 -19.9112
ltibia 26.1535
lfoot -21.7363 9.08679
ltoes -12.2743
66
root 2.75704 17.6617 17.3878 -4.76961 11.4998 0.244836
lowerback 4.54073 -0.361137 0.420257
upperback 1.72287 -0.495849 -3.59529
thorax -0.810069 -0.235692 -3.91467
lowerneck 0.465424 -1.70824 -2.82602
upperneck 9.83025 -2.11647 -1.02323
head 3.07803 -1.1785 0.102071
rclavicle 5.35476e-015 9.54166e-015
rhumerus -7.19029 4.24158 -73.7
rradius 102.393
rwrist -4.94658
rhand -30.5619 24.9221
rfingers 7.12502
rthumb -3.86009 -5.02266
lclavicle 5.35476e-015 9.54166e-015
lhumerus -34.5926 34.7235 69.7433
lradius 17.6334
lwrist -39.4081
lhand -3.16255 -4.03853
lfingers 7.12502
lthumb 22.558 24.6636
rfemur 9.5602 17.706 21.3182
rtibia 13.2968
rfoot -25.5333 -26.3336
rtoes -11.2287
lfemur 0.788906 -15.8279 -19.8867
ltibia 26.1616
lfoot -21.7166 8.99268
ltoes -12.2836
67
root 2.75439 17.6612 17.3904 -4.77086 11.5815 0.244793
lowerback 4.51438 -0.249244 0.477262
upperback 1.70456 -0.344869 -3.68015
thorax -0.804097 -0.159725 -4.04332
lowerneck 0.510208 -1.8583 -2.88888
upperneck 9.92609 -2.32838 -0.871837
head 3.10811 -1.28175 0.155933
rclavicle -2.54817e-014 3.89618e-014
rhumerus -5.52556 3.97638 -72.8433
rradius 102.02
rwrist -4.8236
rhand -30.4367 24.4792
rfingers 7.12502
rthumb -3.73915 -5.46775
lclavicle -2.54817e-014 3.89618e-014
lhumerus -34.5088 34.975 69.5614
lradius 17.508
lwrist -39.4871
lhand -3.05306 -3.98036
lfingers 7.12502
lthumb 22.663 24.709
rfemur 9.58834 17.6735 21.3383
rtibia 13.2926
rfoot -25.5708 -26.3724
rtoes -11.2067
lfemur 0.770746 -15.8335 -19.8663
ltibia 26.1746
lfoot -21.7099 8.91536
ltoes -12.2906
68
root 2.75244 17.6608 17.3914 -4.78079 11.7006 0.256161
lowerback 4.53513 -0.156966 0.545575
upperback 1.67118 -0.220966 -3.79094
thorax -0.84134 -0.0978672 -4.2041
lowerneck 0.564585 -1.99161 -2.88011
upperneck 10.0334 -2.51905 -0.732814
head 3.13919 -1.37235 0.194112
rclavicle -1.76049e-014 4.53229e-014
rhumerus -3.94047 3.6974 -72.0121
rradius 101.514
rwrist -4.75744
rhand -30.3689 24.2682
rfingers 7.12502
rthumb -3.67372 -5.67984
lclavicle -1.76049e-014 4.53229e-014
lhumerus -34.4412 35.0885 69.3759
lradius 17.4066
lwrist -39.4454
lhand -2.94388 -3.95123
lfingers 7.12502
lthumb 22.7678 24.7253
rfemur 9.62448 17.5885 21.3329
rtibia 13.2898
rfoot -25.6272 -26.377
rtoes -11.2607
lfemur 0.747612 -15.8539 -19.8596
ltibia 26.1857
lfoot -21.6833 8.82098
ltoes -12.3046
